<svg width="150" height="192" viewBox="0 0 150 192" fill="none" xmlns="http://www.w3.org/2000/svg">
<path d="M12.3918 176.862V191.407H7.57274V176.862H0V172.816H19.9775V176.862H12.3918Z" fill="white"/>
<path d="M40.2537 191.407V183.654H27.9919V191.407H23.1728V172.816H27.9919V179.581H40.2537V172.816H45.0727V191.407H40.2537Z" fill="white"/>
<path d="M67.0766 177.024C66.9467 176.979 66.7561 176.92 66.505 176.848C66.2626 176.767 65.9768 176.69 65.6477 176.618C65.3187 176.537 64.955 176.469 64.5566 176.415C64.167 176.361 63.7643 176.334 63.3486 176.334C62.4827 176.334 61.673 176.447 60.9196 176.672C60.1749 176.889 59.4778 177.182 58.8284 177.552C58.1789 177.912 57.5727 178.327 57.0099 178.796C56.4557 179.257 55.9448 179.73 55.4771 180.217V191.407H50.6581V172.816H55.4771V175.833C56.0573 175.382 56.6505 174.949 57.2567 174.534C57.8715 174.11 58.508 173.736 59.1661 173.411C59.8329 173.087 60.5343 172.83 61.2703 172.64C62.0064 172.442 62.7858 172.342 63.6084 172.342C63.9202 172.342 64.2362 172.36 64.5566 172.397C64.8857 172.424 65.2018 172.46 65.5049 172.505C65.8166 172.55 66.1067 172.599 66.3751 172.654C66.6436 172.708 66.8774 172.762 67.0766 172.816V177.024Z" fill="white"/>
<path d="M70.142 191.407V172.816H74.961V191.407H70.142Z" fill="white"/>
<path d="M92.5355 191.407H86.9241L77.8966 172.816H83.2742L89.7688 186.807L96.2504 172.816H101.628L92.5355 191.407Z" fill="white"/>
<path d="M124.203 190.487C122.74 190.992 121.276 191.353 119.813 191.569C118.358 191.795 116.869 191.908 115.345 191.908C113.396 191.908 111.66 191.691 110.136 191.258C108.621 190.816 107.343 190.18 106.304 189.35C105.265 188.52 104.473 187.506 103.927 186.306C103.382 185.106 103.109 183.749 103.109 182.233C103.109 180.826 103.382 179.523 103.927 178.323C104.481 177.114 105.261 176.068 106.265 175.184C107.278 174.291 108.499 173.596 109.928 173.1C111.357 172.595 112.95 172.342 114.708 172.342C116.328 172.342 117.808 172.572 119.15 173.032C120.501 173.483 121.657 174.156 122.619 175.049C123.589 175.942 124.338 177.042 124.866 178.35C125.403 179.658 125.671 181.164 125.671 182.869V184.114H108.084C108.24 184.7 108.495 185.237 108.85 185.724C109.214 186.211 109.703 186.626 110.318 186.969C110.933 187.312 111.686 187.578 112.578 187.767C113.479 187.957 114.552 188.051 115.799 188.051C116.683 188.051 117.548 187.997 118.397 187.889C119.246 187.772 120.038 187.623 120.774 187.443C121.51 187.253 122.173 187.046 122.762 186.82C123.359 186.595 123.84 186.369 124.203 186.144V190.487ZM120.878 180.434C120.835 179.974 120.701 179.5 120.475 179.013C120.259 178.517 119.913 178.07 119.436 177.673C118.96 177.277 118.337 176.952 117.566 176.699C116.795 176.438 115.834 176.307 114.682 176.307C113.6 176.307 112.665 176.447 111.877 176.726C111.088 177.006 110.426 177.353 109.889 177.768C109.361 178.183 108.95 178.63 108.655 179.108C108.361 179.586 108.17 180.028 108.084 180.434H120.878Z" fill="white"/>
<path d="M145.181 191.407V189.58C144.566 189.932 143.904 190.243 143.194 190.514C142.492 190.785 141.76 191.015 140.998 191.204C140.236 191.393 139.448 191.533 138.634 191.623C137.829 191.723 137.015 191.772 136.192 191.772C135.231 191.772 134.3 191.678 133.4 191.488C132.508 191.299 131.715 190.992 131.023 190.568C130.33 190.144 129.771 189.589 129.347 188.904C128.931 188.218 128.724 187.379 128.724 186.387C128.724 185.133 129.053 184.091 129.711 183.262C130.369 182.423 131.373 181.737 132.724 181.205C134.075 180.673 135.781 180.262 137.842 179.974C139.912 179.685 142.358 179.459 145.181 179.297V178.905C145.181 178.598 145.103 178.296 144.947 177.998C144.791 177.691 144.506 177.425 144.09 177.2C143.683 176.965 143.12 176.776 142.401 176.632C141.691 176.487 140.782 176.415 139.674 176.415C138.799 176.415 137.933 176.465 137.076 176.564C136.227 176.654 135.404 176.78 134.608 176.943C133.82 177.105 133.071 177.295 132.361 177.511C131.65 177.728 131.005 177.953 130.425 178.188V173.723C131.031 173.56 131.711 173.402 132.465 173.249C133.218 173.096 134.002 172.965 134.816 172.857C135.63 172.739 136.452 172.649 137.284 172.586C138.115 172.514 138.911 172.478 139.674 172.478C141.172 172.478 142.553 172.609 143.817 172.87C145.081 173.123 146.168 173.52 147.077 174.061C147.995 174.602 148.71 175.288 149.221 176.117C149.74 176.947 150 177.935 150 179.081V191.407H145.181ZM145.181 182.923C143.328 182.995 141.752 183.099 140.453 183.235C139.163 183.37 138.089 183.528 137.232 183.708C136.374 183.889 135.699 184.082 135.205 184.29C134.72 184.497 134.357 184.709 134.114 184.926C133.872 185.142 133.72 185.359 133.66 185.575C133.608 185.792 133.582 185.99 133.582 186.171C133.582 186.387 133.638 186.599 133.75 186.807C133.863 187.005 134.058 187.181 134.335 187.334C134.621 187.488 134.997 187.609 135.465 187.7C135.933 187.79 136.521 187.835 137.232 187.835C138.02 187.835 138.79 187.772 139.544 187.645C140.297 187.519 141.011 187.348 141.687 187.131C142.362 186.906 142.994 186.644 143.583 186.347C144.181 186.04 144.713 185.715 145.181 185.372V182.923Z" fill="white"/>
<path d="M17.0407 150H132.959C142.33 150 150 142.33 150 132.959V17.0407C150 7.6698 142.33 0 132.959 0H17.0407C7.66979 0 0 7.6698 0 17.0407V132.959C0 142.33 7.66979 150 17.0407 150ZM12.5506 134.558C24.7225 114.632 37.2731 92.0316 37.4174 88.323C36.7982 86.9044 32.6027 86.7421 29.8497 87.1869C29.0022 87.3252 28.1547 86.9345 27.7099 86.1952C27.2651 85.4618 27.3132 84.5302 27.8301 83.8449L69.5752 28.2268C69.6955 28.0705 72.202 24.8006 73.7828 23.2198C80.8576 16.139 90.2705 12.244 100.285 12.244C110.299 12.244 119.705 16.1451 126.786 23.2198C133.867 30.2945 137.762 39.7075 137.762 49.7215C137.762 59.7295 133.861 69.1425 126.786 76.2232C126.125 76.8844 125.44 77.5215 124.755 78.1106L80.2024 115.672C79.427 116.327 78.2969 116.333 77.5155 115.696C76.7341 115.059 76.5117 113.947 76.9986 113.058C78.5794 110.142 80.4909 105.027 79.7756 102.785C79.6975 102.533 79.5953 102.37 79.4871 102.25C73.7287 103.711 37.5135 124.406 15.4298 137.467C14.6003 137.96 13.5364 137.822 12.8632 137.131C12.1839 136.446 12.0637 135.382 12.5686 134.558H12.5506Z" fill="#B69EFF"/>
<path d="M15.5522 137.345C37.5899 124.305 73.7294 103.658 79.4757 102.2C79.5837 102.32 79.6856 102.488 79.7636 102.734C80.4774 104.971 78.576 110.076 76.9924 112.985C76.5066 113.873 76.7285 114.977 77.5083 115.619C78.288 116.254 79.4157 116.248 80.1895 115.595L124.649 78.1098C125.338 77.522 126.016 76.8861 126.676 76.2263C133.742 69.16 137.629 59.7663 137.629 49.7788C137.629 39.7912 133.736 30.3975 126.676 23.3312C119.61 16.265 110.217 12.3779 100.23 12.3779C90.2426 12.3779 80.8493 16.271 73.7834 23.3312C72.2058 24.9088 69.7045 28.1721 69.5846 28.328L27.9267 83.8324C27.4108 84.5163 27.3688 85.446 27.8067 86.1779C28.2506 86.9097 29.0963 87.2996 29.9421 87.1676C32.6893 86.7237 36.8761 86.8857 37.4939 88.3013C37.3499 91.9964 24.8315 114.557 12.6791 134.442C12.1752 135.264 12.3012 136.326 12.973 137.009C13.6508 137.699 14.7065 137.831 15.5342 137.345H15.5522ZM100.26 24.8309C114.056 24.8309 125.242 36.0181 125.242 49.8147C125.242 63.6114 114.056 74.7986 100.26 74.7986C86.4637 74.7986 75.2769 63.6114 75.2769 49.8147C75.2769 36.0181 86.4637 24.8309 100.26 24.8309Z" fill="#251D38"/>
<path d="M100.129 74.9953C114.007 74.9953 125.258 63.7447 125.258 49.8664C125.258 35.9881 114.007 24.7375 100.129 24.7375C86.2506 24.7375 75 35.9881 75 49.8664C75 63.7447 86.2506 74.9953 100.129 74.9953Z" fill="#B69EFF"/>
</svg>
