<svg width="150" height="191" viewBox="0 0 150 191" fill="none" xmlns="http://www.w3.org/2000/svg">
<path d="M12.3918 175.861V190.407H7.57274V175.861H0V171.816H19.9775V175.861H12.3918Z" fill="#251D38"/>
<path d="M40.2537 190.407V182.654H27.9919V190.407H23.1728V171.816H27.9919V178.581H40.2537V171.816H45.0727V190.407H40.2537Z" fill="#251D38"/>
<path d="M67.0766 176.024C66.9467 175.979 66.7561 175.92 66.505 175.848C66.2626 175.767 65.9768 175.69 65.6477 175.618C65.3187 175.537 64.955 175.469 64.5566 175.415C64.167 175.361 63.7643 175.334 63.3486 175.334C62.4827 175.334 61.673 175.447 60.9196 175.672C60.1749 175.889 59.4778 176.182 58.8284 176.552C58.1789 176.912 57.5727 177.327 57.0099 177.796C56.4557 178.256 55.9448 178.73 55.4771 179.217V190.407H50.6581V171.816H55.4771V174.833C56.0573 174.382 56.6505 173.949 57.2567 173.534C57.8715 173.11 58.508 172.736 59.1661 172.411C59.8329 172.086 60.5343 171.829 61.2703 171.64C62.0064 171.442 62.7858 171.342 63.6084 171.342C63.9202 171.342 64.2362 171.36 64.5566 171.396C64.8857 171.423 65.2018 171.46 65.5049 171.505C65.8166 171.55 66.1067 171.599 66.3751 171.653C66.6436 171.708 66.8774 171.762 67.0766 171.816V176.024Z" fill="#251D38"/>
<path d="M70.142 190.407V171.816H74.961V190.407H70.142Z" fill="#251D38"/>
<path d="M92.5355 190.407H86.9241L77.8966 171.816H83.2742L89.7688 185.806L96.2504 171.816H101.628L92.5355 190.407Z" fill="#251D38"/>
<path d="M124.203 189.487C122.74 189.992 121.276 190.353 119.813 190.569C118.358 190.795 116.869 190.908 115.345 190.908C113.396 190.908 111.66 190.691 110.136 190.258C108.621 189.816 107.343 189.18 106.304 188.35C105.265 187.52 104.473 186.506 103.927 185.306C103.382 184.106 103.109 182.749 103.109 181.233C103.109 179.826 103.382 178.523 103.927 177.323C104.481 176.114 105.261 175.068 106.265 174.184C107.278 173.291 108.499 172.596 109.928 172.1C111.357 171.595 112.95 171.342 114.708 171.342C116.328 171.342 117.808 171.572 119.15 172.032C120.501 172.483 121.657 173.155 122.619 174.048C123.588 174.941 124.338 176.042 124.866 177.35C125.403 178.658 125.671 180.164 125.671 181.869V183.114H108.084C108.24 183.7 108.495 184.237 108.85 184.724C109.214 185.211 109.703 185.626 110.318 185.969C110.933 186.312 111.686 186.578 112.578 186.767C113.479 186.957 114.552 187.051 115.799 187.051C116.683 187.051 117.548 186.997 118.397 186.889C119.246 186.772 120.038 186.623 120.774 186.442C121.51 186.253 122.173 186.046 122.762 185.82C123.359 185.594 123.84 185.369 124.203 185.143V189.487ZM120.878 179.434C120.835 178.974 120.701 178.5 120.475 178.013C120.259 177.517 119.913 177.07 119.436 176.673C118.96 176.276 118.337 175.952 117.566 175.699C116.795 175.438 115.834 175.307 114.682 175.307C113.6 175.307 112.665 175.447 111.877 175.726C111.088 176.006 110.426 176.353 109.889 176.768C109.361 177.183 108.95 177.629 108.655 178.108C108.361 178.586 108.17 179.028 108.084 179.434H120.878Z" fill="#251D38"/>
<path d="M145.181 190.407V188.58C144.566 188.932 143.904 189.243 143.194 189.514C142.492 189.784 141.76 190.014 140.998 190.204C140.236 190.393 139.448 190.533 138.634 190.623C137.829 190.723 137.015 190.772 136.192 190.772C135.231 190.772 134.3 190.677 133.4 190.488C132.508 190.299 131.715 189.992 131.023 189.568C130.33 189.144 129.771 188.589 129.347 187.904C128.931 187.218 128.724 186.379 128.724 185.387C128.724 184.133 129.053 183.091 129.711 182.261C130.369 181.423 131.373 180.737 132.724 180.205C134.075 179.673 135.781 179.262 137.842 178.974C139.912 178.685 142.358 178.459 145.181 178.297V177.905C145.181 177.598 145.103 177.296 144.947 176.998C144.791 176.691 144.506 176.425 144.09 176.2C143.683 175.965 143.12 175.776 142.401 175.631C141.691 175.487 140.782 175.415 139.674 175.415C138.799 175.415 137.933 175.465 137.076 175.564C136.227 175.654 135.404 175.78 134.608 175.943C133.82 176.105 133.071 176.294 132.361 176.511C131.651 176.727 131.005 176.953 130.425 177.187V172.722C131.031 172.56 131.711 172.402 132.465 172.249C133.218 172.095 134.002 171.965 134.816 171.856C135.63 171.739 136.452 171.649 137.284 171.586C138.115 171.514 138.912 171.478 139.674 171.478C141.172 171.478 142.553 171.608 143.817 171.87C145.081 172.123 146.168 172.519 147.077 173.061C147.995 173.602 148.71 174.287 149.221 175.117C149.74 175.947 150 176.935 150 178.081V190.407H145.181ZM145.181 181.923C143.328 181.995 141.752 182.099 140.453 182.234C139.163 182.37 138.089 182.528 137.232 182.708C136.374 182.888 135.699 183.082 135.205 183.29C134.72 183.497 134.357 183.709 134.114 183.926C133.872 184.142 133.72 184.359 133.66 184.575C133.608 184.792 133.582 184.99 133.582 185.171C133.582 185.387 133.638 185.599 133.75 185.806C133.863 186.005 134.058 186.181 134.335 186.334C134.621 186.488 134.997 186.609 135.465 186.699C135.933 186.79 136.521 186.835 137.232 186.835C138.02 186.835 138.79 186.772 139.544 186.645C140.297 186.519 141.011 186.348 141.687 186.131C142.362 185.906 142.994 185.644 143.583 185.346C144.181 185.04 144.713 184.715 145.181 184.372V181.923Z" fill="#251D38"/>
<path d="M17.0407 150H132.959C142.33 150 150 142.33 150 132.959V17.0407C150 7.6698 142.33 0 132.959 0H17.0407C7.66979 0 0 7.6698 0 17.0407V132.959C0 142.33 7.66979 150 17.0407 150ZM12.5506 134.558C24.7225 114.632 37.2731 92.0316 37.4174 88.323C36.7982 86.9044 32.6027 86.7421 29.8497 87.1869C29.0022 87.3252 28.1547 86.9345 27.7099 86.1952C27.2651 85.4618 27.3132 84.5302 27.8301 83.8449L69.5752 28.2268C69.6955 28.0705 72.202 24.8006 73.7828 23.2198C80.8576 16.139 90.2705 12.244 100.285 12.244C110.299 12.244 119.705 16.1451 126.786 23.2198C133.867 30.2945 137.762 39.7075 137.762 49.7215C137.762 59.7295 133.861 69.1425 126.786 76.2232C126.125 76.8844 125.44 77.5215 124.755 78.1106L80.2024 115.672C79.427 116.327 78.2969 116.333 77.5155 115.696C76.7341 115.059 76.5117 113.947 76.9986 113.058C78.5794 110.142 80.4909 105.027 79.7756 102.785C79.6975 102.533 79.5953 102.37 79.4871 102.25C73.7287 103.711 37.5135 124.406 15.4298 137.467C14.6003 137.96 13.5364 137.822 12.8632 137.131C12.1839 136.446 12.0637 135.382 12.5686 134.558H12.5506Z" fill="#B69EFF"/>
<path d="M15.5522 137.345C37.5899 124.305 73.7294 103.658 79.4757 102.2C79.5837 102.32 79.6856 102.488 79.7636 102.734C80.4774 104.971 78.576 110.076 76.9924 112.985C76.5066 113.873 76.7285 114.977 77.5083 115.619C78.288 116.254 79.4157 116.248 80.1895 115.595L124.649 78.1098C125.338 77.522 126.016 76.8861 126.676 76.2263C133.742 69.16 137.629 59.7663 137.629 49.7788C137.629 39.7912 133.736 30.3975 126.676 23.3312C119.61 16.265 110.217 12.3779 100.23 12.3779C90.2426 12.3779 80.8493 16.271 73.7834 23.3312C72.2058 24.9088 69.7045 28.1721 69.5846 28.328L27.9267 83.8324C27.4108 84.5163 27.3688 85.446 27.8067 86.1779C28.2506 86.9097 29.0963 87.2996 29.9421 87.1676C32.6893 86.7237 36.8761 86.8857 37.4939 88.3013C37.3499 91.9964 24.8315 114.557 12.6791 134.442C12.1752 135.264 12.3012 136.326 12.973 137.009C13.6508 137.699 14.7065 137.831 15.5342 137.345H15.5522ZM100.26 24.8309C114.056 24.8309 125.242 36.0181 125.242 49.8147C125.242 63.6114 114.056 74.7986 100.26 74.7986C86.4637 74.7986 75.2769 63.6114 75.2769 49.8147C75.2769 36.0181 86.4637 24.8309 100.26 24.8309Z" fill="#251D38"/>
<path d="M100.129 74.9953C114.007 74.9953 125.258 63.7447 125.258 49.8664C125.258 35.9881 114.007 24.7375 100.129 24.7375C86.2506 24.7375 75 35.9881 75 49.8664C75 63.7447 86.2506 74.9953 100.129 74.9953Z" fill="#B69EFF"/>
</svg>
